<svg width="20" height="23" viewBox="0 0 20 23" fill="none" xmlns="http://www.w3.org/2000/svg">
<path d="M17.3726 22.65H2.62693C2.08515 22.65 1.61963 22.454 1.23038 22.062C0.841118 21.67 0.646484 21.2011 0.646484 20.6555V7.67395C0.646484 7.12828 0.841118 6.65944 1.23038 6.26743C1.61963 5.87539 2.08515 5.67938 2.62693 5.67938H5.09431C5.09431 4.32503 5.54898 3.16886 6.45831 2.21088C7.36764 1.25291 8.50533 0.773926 9.87136 0.773926C11.2374 0.773926 12.4179 1.25211 13.4128 2.20848C14.4077 3.16486 14.9052 4.32183 14.9052 5.67938H17.3726C17.9183 5.67938 18.3871 5.87539 18.7791 6.26743C19.1712 6.65944 19.3672 7.12828 19.3672 7.67395V20.6555C19.3672 21.2011 19.1712 21.67 18.7791 22.062C18.3871 22.454 17.9183 22.65 17.3726 22.65ZM7.07478 5.67938H12.9247C12.9247 4.84749 12.6476 4.15438 12.0932 3.60003C11.5389 3.04569 10.8411 2.76853 9.99976 2.76853C9.15846 2.76853 8.46063 3.04589 7.90628 3.60063C7.35195 4.15536 7.07478 4.84828 7.07478 5.67938ZM10.0068 13.8294C11.2659 13.8294 12.4025 13.4082 13.4166 12.5658C14.4307 11.7234 14.9425 10.7671 14.9519 9.6968C14.9519 9.44752 14.8579 9.23556 14.6698 9.06093C14.4816 8.88628 14.2474 8.79895 13.9671 8.79895C13.7541 8.79895 13.5673 8.8591 13.4068 8.9794C13.2463 9.09968 13.1211 9.26925 13.0313 9.4881C12.8363 10.1678 12.4561 10.7312 11.8905 11.1783C11.3248 11.6254 10.6946 11.849 9.99976 11.849C9.30168 11.849 8.67063 11.6278 8.10663 11.1854C7.54263 10.743 7.16788 10.1772 6.98238 9.4881C6.87368 9.27867 6.73294 9.11145 6.56016 8.98645C6.38736 8.86145 6.19288 8.79895 5.97671 8.79895C5.70923 8.79895 5.4875 8.88392 5.31153 9.05385C5.13557 9.22378 5.04758 9.43339 5.04758 9.68268C5.04758 10.7588 5.55519 11.7189 6.57041 12.5631C7.58563 13.4073 8.7311 13.8294 10.0068 13.8294Z" fill="#3D5AFE"/>
</svg>
